<?xml version="1.0" standalone="no"?>
<!DOCTYPE svg PUBLIC "-//W3C//DTD SVG 20010904//EN"
 "http://www.w3.org/TR/2001/REC-SVG-20010904/DTD/svg10.dtd">
<svg version="1.0" xmlns="http://www.w3.org/2000/svg"
 width="700.000000pt" height="700.000000pt" viewBox="0 0 700.000000 700.000000"
 preserveAspectRatio="xMidYMid meet">
<metadata>
Created by potrace 1.14, written by Peter Selinger 2001-2017
</metadata>
<g transform="translate(0.000000,700.000000) scale(0.100000,-0.100000)"
fill="#000000" stroke="none">
<path d="M889 5108 c-3 -7 -4 -3165 -1 -3178 3 -13 48 -15 345 -13 188 1 352
2 365 2 l22 1 0 478 0 477 43 -45 c23 -25 101 -108 172 -184 72 -77 160 -171
196 -210 37 -39 81 -87 99 -106 18 -19 87 -93 155 -165 67 -71 146 -156 176
-189 l55 -59 437 0 c241 0 439 2 441 4 4 4 -86 98 -594 620 -157 161 -318 326
-358 368 -41 42 -113 115 -160 164 l-87 87 75 70 c41 39 127 119 190 179 63
60 131 123 150 141 46 43 283 265 330 310 75 72 296 279 333 313 21 19 35 37
30 39 -4 2 -195 4 -424 3 l-415 0 -420 -419 -419 -418 -3 866 -2 866 -365 0
c-201 0 -365 -1 -366 -2z"/>
<path d="M3485 4210 c-2 -4 12 -67 31 -141 20 -74 37 -141 39 -149 2 -8 11
-42 20 -75 9 -33 18 -68 20 -79 3 -10 11 -42 19 -70 8 -28 31 -112 50 -186 46
-179 94 -362 226 -860 107 -405 183 -697 184 -707 1 -7 5 -15 9 -19 3 -4 185
-7 404 -7 l397 0 73 294 c40 162 75 306 78 321 3 15 45 190 94 390 122 495
131 533 132 554 0 18 1 18 10 -1 7 -15 101 -381 124 -485 4 -17 83 -339 157
-640 27 -113 51 -212 53 -220 15 -71 49 -197 56 -204 9 -10 781 -12 797 -2 5
3 13 22 16 41 4 20 67 264 141 543 73 279 148 561 165 627 17 66 45 170 61
230 16 61 32 120 34 131 3 12 32 124 65 248 60 226 61 228 58 349 l-3 122
-313 0 c-172 0 -318 -3 -324 -6 -7 -5 -111 -396 -143 -539 -2 -8 -22 -91 -45
-185 -23 -93 -43 -177 -45 -185 -2 -8 -31 -125 -65 -260 -34 -135 -64 -254
-66 -265 -2 -11 -10 -42 -18 -70 l-13 -50 -11 40 c-10 35 -68 275 -77 315 -2
8 -20 80 -40 160 -20 80 -38 153 -41 163 -2 15 -68 283 -90 367 -2 8 -14 60
-28 115 -13 55 -41 168 -61 250 l-37 150 -303 0 c-167 0 -306 -3 -308 -5 -5
-5 -72 -272 -257 -1035 -23 -93 -59 -242 -81 -330 -22 -88 -42 -168 -44 -179
-8 -34 -11 -27 -34 72 -13 53 -50 207 -83 342 -33 135 -62 252 -64 260 -2 8
-11 44 -19 80 -9 36 -18 72 -20 80 -2 8 -21 90 -44 183 -23 92 -59 241 -81
331 -22 90 -40 171 -40 180 0 9 -3 17 -7 17 -30 5 -705 3 -708 -1z"/>
</g>
</svg>
